HIERARCHY
ROOT hips
{
  OFFSET 0 10.6860622 2.3727825e-15
  CHANNELS 6 Xposition Yposition Zposition Yrotation Xrotation Zrotation
  JOINT leftUpperLeg
  {
    OFFSET 0.6642549969 -0.9402397400000004 0
    CHANNELS 3 Yrotation Xrotation Zrotation
    JOINT leftLowerLeg
    {
      OFFSET 0 -3.997221335632195 0
      CHANNELS 3 Yrotation Xrotation Zrotation
      JOINT leftFoot
      {
        OFFSET -0.13777839790000004 -4.6145792000000005 -0.22186036399999998
        CHANNELS 3 Yrotation Xrotation Zrotation
        JOINT leftToes
        {
          OFFSET -0.03777410834999995 -0.9130806927000008 0.85230013
          CHANNELS 3 Yrotation Xrotation Zrotation
          End Site
          {
            OFFSET -0.03777410834999995 -0.9130806927000008 0.85230013
          }
        }
      }
    }
  }
  JOINT rightUpperLeg
  {
    OFFSET -0.6642778626 -0.9402397400000004 0
    CHANNELS 3 Yrotation Xrotation Zrotation
    JOINT rightLowerLeg
    {
      OFFSET 0 -3.997221452859387 0
      CHANNELS 3 Yrotation Xrotation Zrotation
      JOINT rightFoot
      {
        OFFSET 0.1377926176 -4.6145792000000005 -0.22185782299999995
        CHANNELS 3 Yrotation Xrotation Zrotation
        JOINT rightToes
        {
          OFFSET 0.037780746850000047 -0.9130806927000008 0.85230167
          CHANNELS 3 Yrotation Xrotation Zrotation
          End Site
          {
            OFFSET 0.037780746850000047 -0.9130806927000008 0.85230167
          }
        }
      }
    }
  }
  JOINT spine
  {
    OFFSET 0 0.13988381660000015 0
    CHANNELS 3 Yrotation Xrotation Zrotation
    JOINT chest
    {
      OFFSET 0 0.6191039003973773 0
      CHANNELS 3 Yrotation Xrotation Zrotation
      JOINT upperChest
      {
        OFFSET 0 0.9855186130586943 0
        CHANNELS 3 Yrotation Xrotation Zrotation
        JOINT leftShoulder
        {
          OFFSET 0.1807663869 1.5087829790000005 0
          CHANNELS 3 Yrotation Xrotation Zrotation
          JOINT leftUpperArm
          {
            OFFSET 0.5985063006419806 0 0
            CHANNELS 3 Yrotation Xrotation Zrotation
            JOINT leftLowerArm
            {
              OFFSET 2.2993332369501065 0 0
              CHANNELS 3 Yrotation Xrotation Zrotation
              JOINT leftHand
              {
                OFFSET 2.395047042602395 0 0
                CHANNELS 3 Yrotation Xrotation Zrotation
                JOINT leftIndexProximal
                {
                  OFFSET 0.5766295810000004 0.04556643899499946 0.17265095988184
                  CHANNELS 3 Yrotation Xrotation Zrotation
                  JOINT leftIndexIntermediate
                  {
                    OFFSET 0.2957229000000008 -0.019352197700001517 -0.007932640616999987
                    CHANNELS 3 Yrotation Xrotation Zrotation
                    JOINT leftIndexDistal
                    {
                      OFFSET 0.19008243099999922 -0.012484908149998475 -0.002786250786000012
                      CHANNELS 3 Yrotation Xrotation Zrotation
                      End Site
                      {
                        OFFSET 0.19008243099999922 -0.012484908149998475 -0.002786250786000012
                      }
                    }
                  }
                }
                JOINT leftMiddleProximal
                {
                  OFFSET 0.5834975091000001 0.0524350405149987 0.02204081888183999
                  CHANNELS 3 Yrotation Xrotation Zrotation
                  JOINT leftMiddleIntermediate
                  {
                    OFFSET 0.33880573540000003 -0.019871473270000717 -0.00000971183179999946
                    CHANNELS 3 Yrotation Xrotation Zrotation
                    JOINT leftMiddleDistal
                    {
                      OFFSET 0.20676022730000088 -0.012221336379999448 0.0001471936708000235
                      CHANNELS 3 Yrotation Xrotation Zrotation
                      End Site
                      {
                        OFFSET 0.20676022730000088 -0.012221336379999448 0.0001471936708000235
                      }
                    }
                  }
                }
                JOINT leftLittleProximal
                {
                  OFFSET 0.5344154683999995 -0.012880921405001189 -0.24414037221816004
                  CHANNELS 3 Yrotation Xrotation Zrotation
                  JOINT leftLittleIntermediate
                  {
                    OFFSET 0.21758961730000093 -0.011650919939999227 0.011893592810000034
                    CHANNELS 3 Yrotation Xrotation Zrotation
                    JOINT leftLittleDistal
                    {
                      OFFSET 0.1475273964999999 -0.008152365682999818 0.006001092492999946
                      CHANNELS 3 Yrotation Xrotation Zrotation
                      End Site
                      {
                        OFFSET 0.1475273964999999 -0.008152365682999818 0.006001092492999946
                      }
                    }
                  }
                }
                JOINT leftRingProximal
                {
                  OFFSET 0.5799399463000003 0.026911854694997794 -0.12150566991816003
                  CHANNELS 3 Yrotation Xrotation Zrotation
                  JOINT leftRingIntermediate
                  {
                    OFFSET 0.26167887460000006 -0.013480186499999602 0.010996293000000053
                    CHANNELS 3 Yrotation Xrotation Zrotation
                    JOINT leftRingDistal
                    {
                      OFFSET 0.17667108799999987 -0.008990287899999228 0.0055541023999999065
                      CHANNELS 3 Yrotation Xrotation Zrotation
                      End Site
                      {
                        OFFSET 0.17667108799999987 -0.008990287899999228 0.0055541023999999065
                      }
                    }
                  }
                }
                JOINT leftThumbProximal
                {
                  OFFSET 0.11018806699999972 -0.09448718900500053 0.17047963138184
                  CHANNELS 3 Yrotation Xrotation Zrotation
                  JOINT leftThumbIntermediate
                  {
                    OFFSET 0.31062601459999983 -0.08126270900000132 0.15443142000000007
                    CHANNELS 3 Yrotation Xrotation Zrotation
                    JOINT leftThumbDistal
                    {
                      OFFSET 0.21627175790000086 -0.08833193599999878 0.018771167799999988
                      CHANNELS 3 Yrotation Xrotation Zrotation
                      End Site
                      {
                        OFFSET 0.21627175790000086 -0.08833193599999878 0.018771167799999988
                      }
                    }
                  }
                }
              }
            }
          }
        }
        JOINT neck
        {
          OFFSET 0 1.5463305265074576 0
          CHANNELS 3 Yrotation Xrotation Zrotation
          JOINT head
          {
            OFFSET 0 0.8456443600000344 0
            CHANNELS 3 Yrotation Xrotation Zrotation
            JOINT leftEye
            {
              OFFSET 0.30408573140000006 0.5104519199999995 0.1276382305
              CHANNELS 3 Yrotation Xrotation Zrotation
              End Site
              {
                OFFSET 0.30408573140000006 0.5104519199999995 0.1276382305
              }
            }
            JOINT rightEye
            {
              OFFSET -0.30409491089999996 0.5104519199999995 0.1276379445
              CHANNELS 3 Yrotation Xrotation Zrotation
              End Site
              {
                OFFSET -0.30409491089999996 0.5104519199999995 0.1276379445
              }
            }
            JOINT jaw
            {
              OFFSET -3.155239131000001e-7 -0.11984121820000082 0.60178107
              CHANNELS 3 Yrotation Xrotation Zrotation
              End Site
              {
                OFFSET -3.155239131000001e-7 -0.11984121820000082 0.60178107
              }
            }
          }
        }
        JOINT rightShoulder
        {
          OFFSET -0.1807303465 1.5087829790000005 0
          CHANNELS 3 Yrotation Xrotation Zrotation
          JOINT rightUpperArm
          {
            OFFSET -0.5985063796536958 0 0
            CHANNELS 3 Yrotation Xrotation Zrotation
            JOINT rightLowerArm
            {
              OFFSET -2.2993322059002854 0 0
              CHANNELS 3 Yrotation Xrotation Zrotation
              JOINT rightHand
              {
                OFFSET -2.395045314457259 0 0
                CHANNELS 3 Yrotation Xrotation Zrotation
                JOINT rightIndexProximal
                {
                  OFFSET -0.5764487688300002 0.0441371204405987 0.17361932004999997
                  CHANNELS 3 Yrotation Xrotation Zrotation
                  JOINT rightIndexIntermediate
                  {
                    OFFSET -0.29573011380000047 -0.01934826376999843 -0.007698921482999974
                    CHANNELS 3 Yrotation Xrotation Zrotation
                    JOINT rightIndexDistal
                    {
                      OFFSET -0.19008373999999884 -0.012503266380000655 -0.0026365778999999897
                      CHANNELS 3 Yrotation Xrotation Zrotation
                      End Site
                      {
                        OFFSET -0.19008373999999884 -0.012503266380000655 -0.0026365778999999897
                      }
                    }
                  }
                }
                JOINT rightMiddleProximal
                {
                  OFFSET -0.5834852037300005 0.05211639405060153 0.02307162440000001
                  CHANNELS 3 Yrotation Xrotation Zrotation
                  JOINT rightMiddleIntermediate
                  {
                    OFFSET -0.33880114510000003 -0.019952774050000954 0.0002455003561999819
                    CHANNELS 3 Yrotation Xrotation Zrotation
                    JOINT rightMiddleDistal
                    {
                      OFFSET -0.20675694929999955 -0.012273788999999091 0.00030209124000002766
                      CHANNELS 3 Yrotation Xrotation Zrotation
                      End Site
                      {
                        OFFSET -0.20675694929999955 -0.012273788999999091 0.00030209124000002766
                      }
                    }
                  }
                }
                JOINT rightLittleProximal
                {
                  OFFSET -0.5346811737299992 -0.011214256288399227 -0.24363941305000003
                  CHANNELS 3 Yrotation Xrotation Zrotation
                  JOINT rightLittleIntermediate
                  {
                    OFFSET -0.21757715980000092 -0.011771559690000988 0.01201554387
                    CHANNELS 3 Yrotation Xrotation Zrotation
                    JOINT rightLittleDistal
                    {
                      OFFSET -0.1475201849000004 -0.00822055339600003 0.006082065407000015
                      CHANNELS 3 Yrotation Xrotation Zrotation
                      End Site
                      {
                        OFFSET -0.1475201849000004 -0.00822055339600003 0.006082065407000015
                      }
                    }
                  }
                }
                JOINT rightRingProximal
                {
                  OFFSET -0.5800810755299999 0.027657985680600072 -0.12066365025000003
                  CHANNELS 3 Yrotation Xrotation Zrotation
                  JOINT rightRingIntermediate
                  {
                    OFFSET -0.26166445029999974 -0.013623118409999302 0.011164098990000045
                    CHANNELS 3 Yrotation Xrotation Zrotation
                    JOINT rightRingDistal
                    {
                      OFFSET -0.17666387530000027 -0.009072900100000503 0.005668185599999959
                      CHANNELS 3 Yrotation Xrotation Zrotation
                      End Site
                      {
                        OFFSET -0.17666387530000027 -0.009072900100000503 0.005668185599999959
                      }
                    }
                  }
                }
                JOINT rightThumbProximal
                {
                  OFFSET -0.10997596379000074 -0.09577489355940072 0.16989765924999997
                  CHANNELS 3 Yrotation Xrotation Zrotation
                  JOINT rightThumbIntermediate
                  {
                    OFFSET -0.31036620999999986 -0.08229339117999834 0.15440884469999996
                    CHANNELS 3 Yrotation Xrotation Zrotation
                    JOINT rightThumbDistal
                    {
                      OFFSET -0.21631306399999906 -0.08825326400000111 0.018656797720000014
                      CHANNELS 3 Yrotation Xrotation Zrotation
                      End Site
                      {
                        OFFSET -0.21631306399999906 -0.08825326400000111 0.018656797720000014
                      }
                    }
                  }
                }
              }
            }
          }
        }
      }
    }
  }
}
MOTION
Frames: 7
Frame Time: 0.03333333333333333
5.366740723532839 -5.584411149838409 3.1029906738703468 48.27827656841915 -47.918856255223005 140.20881665422314 20.483099698805297 -77.75366458720609 12.405956454946999 1.7342396367224815 15.757321872804187 9.021818296110713 0 0 0 0 0 0 21.12611177201715 -74.42543882061086 -65.83672256154112 125.29229654504024 64.21980806385218 112.07236861045024 1.3546860939954712 11.904167531135476 -23.33757426824925 0 0 0 16.02467793750313 5.658393665058143 2.9414404271162353 5.582974175511976 35.42521992801714 3.36309562786672 0 0 0 -1.7230150697001183 0.44701680396253785 -41.744526883558535 -32.49697233757237 47.18929790463093 -41.79371085107668 -4.480733431534399 35.715363839411324 1.142252774388423 -10.820632006326345 -10.657761728155094 8.162500869692138 0 0 0 0 0 0 0 0 0 0 0 0 0 0 0 0 0 0 0 0 0 0 0 0 0 0 0 0 0 0 0 0 0 0 0 0 0 0 0 0 0 0 0 0 0 -0.0016397079634588245 31.327520512129162 -27.00155111149404 -8.06266993061907 -8.619781146867323 -3.834335248798475 0 0 0 0 0 0 0 0 0 1.8883414862126153 -4.962091108599188 -17.557069277651802 52.40924059242909 19.676434620526553 78.95540073290393 36.62217419848024 35.23658348799483 5.990277810439936 -16.481055596264223 2.065122580995714 2.381981106505821 0 0 0 0 0 0 0 0 0 0 0 0 0 0 0 0 0 0 0 0 0 0 0 0 0 0 0 0 0 0 0 0 0 0 0 0 0 0 0 0 0 0 0 0 0
5.366740723532839 -5.584411149838409 3.1029906738703468 48.27827656841915 -47.918856255223005 140.20881665422314 20.51147257540389 -77.77006539573269 12.376929514104223 1.734239858398599 15.757323647025773 9.021818296110713 0 0 0 0 0 0 20.054453020698524 -74.28611882171677 -64.92088165204441 125.06165502336141 64.23131398674963 111.66824801497962 1.3546860939954712 11.904167531135476 -23.33757426824925 0 0 0 16.012245944723414 5.200857732513279 2.809453085070056 5.647126136894988 36.32824793807825 3.4725926840969863 0 0 0 -1.8989578038949981 0.16804621320425506 -41.252715193939565 -32.88326547345839 46.94881287075772 -42.34618750063065 -4.6579776780821005 35.72044924856094 1.2170520074253743 -10.729132275914097 -10.920757020028812 8.21319053724416 0 0 0 0 0 0 0 0 0 0 0 0 0 0 0 0 0 0 0 0 0 0 0 0 0 0 0 0 0 0 0 0 0 0 0 0 0 0 0 0 0 0 0 0 0 -0.0016030005595028707 30.946181040476944 -27.001525142025717 -7.285069902673352 -8.56745931509752 -3.950502928321342 0 0 0 0 0 0 0 0 0 2.089724282426412 -5.301282138655132 -17.654220008498623 52.40924059242909 19.676434620526553 78.95540073290393 36.62217419848024 35.23658348799483 5.990277810439936 -16.405273386324552 1.8651772427965712 2.397797524387484 0 0 0 0 0 0 0 0 0 0 0 0 0 0 0 0 0 0 0 0 0 0 0 0 0 0 0 0 0 0 0 0 0 0 0 0 0 0 0 0 0 0 0 0 0
5.366740723532839 -5.584411149838409 3.1029906738703468 48.27827656841915 -47.918856255223005 140.20881665422314 20.53992373757371 -77.78643946367625 12.34782475913926 1.7342396367224815 15.757321872804187 9.021818296110713 0 0 0 0 0 0 19.000432959847537 -74.14225502005702 -64.0227290309649 124.83071942526145 64.24214099287137 111.26384476899278 1.3546860939954712 11.904167531135476 -23.33757426824925 0 0 0 16.000884551576455 4.743332009120293 2.6776688797027166 5.7141873817514615 37.23094922755137 3.5846269594578217 0 0 0 -2.077268815451995 -0.10937289946077491 -40.760097104420936 -33.264405796755355 46.705827659776176 -42.89378144681425 -4.835221360037833 35.72572428388347 1.291836136041354 -10.63778771211952 -11.183825305638761 8.26349757967455 0 0 0 0 0 0 0 0 0 0 0 0 0 0 0 0 0 0 0 0 0 0 0 0 0 0 0 0 0 0 0 0 0 0 0 0 0 0 0 0 0 0 0 0 0 -0.001569756981470192 30.564659797796057 -27.00150361995566 -6.506099125467228 -8.513472491702512 -4.066159293431555 0 0 0 0 0 0 0 0 0 2.291789264051226 -5.64011266801301 -17.752619951876497 52.40924059242909 19.676434620526553 78.95540073290393 36.62217419848024 35.23658348799483 5.990277810439936 -16.329550456947114 1.6652144800407924 2.4133474343810377 0 0 0 0 0 0 0 0 0 0 0 0 0 0 0 0 0 0 0 0 0 0 0 0 0 0 0 0 0 0 0 0 0 0 0 0 0 0 0 0 0 0 0 0 0
5.366740723532839 -5.584411149838409 3.1029906738703468 48.27827656841915 -47.918856255223005 140.20881665422314 20.568446852489814 -77.80281901445247 12.318652395600292 1.7342397475605404 15.757321872804187 9.021817419974628 0 0 0 0 0 0 17.964148992125715 -73.99396596593671 -63.142358749650555 124.59953520514578 64.25224111592784 110.85919736274637 1.3546860939954712 11.904167531135476 -23.33757426824925 0 0 0 15.990584418516756 4.285824999161475 2.5460693556924645 5.7842876664900205 38.13320588800221 3.699333246643237 0 0 0 -2.2579326920677154 -0.38520278592648577 -40.26668865495686 -33.640434818940065 46.46040630988053 -43.43652729088965 -5.012464633919853 35.73118477609966 1.36660217826453 -10.54660055823431 -11.446961881769708 8.313422370668976 0 0 0 0 0 0 0 0 0 0 0 0 0 0 0 0 0 0 0 0 0 0 0 0 0 0 0 0 0 0 0 0 0 0 0 0 0 0 0 0 0 0 0 0 0 -0.0015347789056149547 30.182957917728118 -27.00149014465789 -5.725824296185697 -8.457821335330925 -4.181270678704698 0 0 0 0 0 0 0 0 0 2.4945461054025584 -5.978570336491659 -17.852274537667952 52.40924059242909 19.676434620526553 78.95540073290393 36.62217419848024 35.23658348799483 5.990277810439936 -16.25389892835764 1.4652347455631758 2.42863020879954 0 0 0 0 0 0 0 0 0 0 0 0 0 0 0 0 0 0 0 0 0 0 0 0 0 0 0 0 0 0 0 0 0 0 0 0 0 0 0 0 0 0 0 0 0
5.366740723532839 -5.584411149838409 3.1029906738703468 48.27827656841915 -47.918856255223005 140.20881665422314 20.597023220534084 -77.81918788569656 12.289417867972396 1.7342396367224815 15.757321872804187 9.021818296110713 0 0 0 0 0 0 16.945633120571753 -73.84138166943264 -62.279805283289015 124.3681554813825 64.2616135589638 110.45437446414937 1.3546860939954712 11.904167531135476 -23.33757426824925 0 0 0 15.981347448824797 3.82835929102461 2.414647330425402 5.857559916206308 39.034895205183616 3.8168508246207 0 0 0 -2.4409337934390516 -0.6594064085242384 -39.77248945414154 -34.01132392552959 46.212577208383124 -43.974400443277055 -5.189704856233414 35.736839177991655 1.441349338588047 -10.455564539455958 -11.710163775594976 8.362961408646134 0 0 0 0 0 0 0 0 0 0 0 0 0 0 0 0 0 0 0 0 0 0 0 0 0 0 0 0 0 0 0 0 0 0 0 0 0 0 0 0 0 0 0 0 0 -0.0015011628181177664 29.801088210079364 -27.001475988401243 -4.944330740400452 -8.40051859927287 -4.295801759647754 0 0 0 0 0 0 0 0 0 2.698002962615798 -6.316640952601641 -17.953188519254443 52.40924059242909 19.676434620526553 78.95540073290393 36.62217419848024 35.23658348799483 5.990277810439936 -16.178303445884172 1.265241479464407 2.4436480518682244 0 0 0 0 0 0 0 0 0 0 0 0 0 0 0 0 0 0 0 0 0 0 0 0 0 0 0 0 0 0 0 0 0 0 0 0 0 0 0 0 0 0 0 0 0
5.366740723532839 -5.584411149838409 3.1029906738703468 48.27827656841915 -47.918856255223005 140.20881665422314 20.625728079391116 -77.83557845015984 12.260073696159166 1.7342396367224815 15.757321872804187 9.021818296110713 0 0 0 0 0 0 15.94489954016701 -73.68463059130397 -61.435087845948374 124.13652578670958 64.2702969142436 110.04931650175816 1.3546860939954712 11.904167531135476 -23.33757426824925 0 0 0 15.973169368394913 3.3709552793120094 2.2833870113342227 5.934152443317596 39.93589791955364 3.937328363666855 0 0 0 -2.6262563592386994 -0.9319474079899925 -39.27752871372114 -34.37713963765786 45.96241247967286 -44.507466454533656 -5.366941565595865 35.74268332332126 1.5160773069886992 -10.364680032484147 -11.973423642555108 8.412118892585003 0 0 0 0 0 0 0 0 0 0 0 0 0 0 0 0 0 0 0 0 0 0 0 0 0 0 0 0 0 0 0 0 0 0 0 0 0 0 0 0 0 0 0 0 0 -0.0014678667880467645 29.419057297887267 -27.00145423739343 -4.161684223057119 -8.341571863526253 -4.409715127002252 0 0 0 0 0 0 0 0 0 2.902170611545228 -6.654311491536306 -18.05535809944447 52.40924059242909 19.676434620526553 78.95540073290393 36.62217419848024 35.23658348799483 5.990277810439936 -16.10276671279654 1.065235664387111 2.4584003691861174 0 0 0 0 0 0 0 0 0 0 0 0 0 0 0 0 0 0 0 0 0 0 0 0 0 0 0 0 0 0 0 0 0 0 0 0 0 0 0 0 0 0 0 0 0
5.366740723532839 -5.584411149838409 3.1029906738703468 48.27827656841915 -47.918856255223005 140.20881665422314 20.654455782427455 -77.8519258817447 12.230690214998011 1.7342396367224815 15.757321872804187 9.021818296110713 0 0 0 0 0 0 14.96190268811785 -73.52381530297959 -60.608129537988674 123.90472635846582 64.27825118734033 109.64409309499328 1.3546860939954712 11.904167531135476 -23.33757426824925 0 0 0 15.966041146162835 2.913626697797858 2.1522763130803173 6.014220683305041 40.836102634458314 4.060929370991405 0 0 0 -2.8138826674217743 -1.2027896716583495 -38.781805023688214 -34.7378807670846 45.70994872951236 -45.035723307209736 -5.544174994981025 35.74871304601513 1.5907850872315883 -10.273944859030747 -12.236742848373556 8.460893956968489 0 0 0 0 0 0 0 0 0 0 0 0 0 0 0 0 0 0 0 0 0 0 0 0 0 0 0 0 0 0 0 0 0 0 0 0 0 0 0 0 0 0 0 0 0 -0.0014348827647711517 29.036867691542614 -27.001442608927473 -3.377959301338356 -8.280988714281204 -4.5229755923418065 0 0 0 0 0 0 0 0 0 3.1070583373298164 -6.99156880410069 -18.15880472288422 52.40924059242909 19.676434620526553 78.95540073290393 36.62217419848024 35.23658348799483 5.990277810439936 -16.027291008884905 0.8652186017675859 2.47288669110403 0 0 0 0 0 0 0 0 0 0 0 0 0 0 0 0 0 0 0 0 0 0 0 0 0 0 0 0 0 0 0 0 0 0 0 0 0 0 0 0 0 0 0 0 0
